<?xml version="1.0" encoding="UTF-8"?>
<svg xmlns="http://www.w3.org/2000/svg" viewBox="0 0 987.36 215.15" role="img" aria-label="COTA CERO logo">
  <title>COTA CERO — logo oficial</title>
  <desc>Wordmark COTA CERO con eje vertical fino y microcuadrado cobre central. Paleta oficial: grafito, negro suave, cobre cálido, blanco hueso y gris piedra.</desc>
  <g id="cota-cero-wordmark" shape-rendering="geometricPrecision">
    <path d="M771 -24C1120 -24 1380 191 1427 523H1117C1079 348 951 248 775 248C521 248 373 441 373 744C373 1049 522 1242 775 1242C952 1242 1081 1141 1116 965H1427C1380 1298 1120 1514 771 1514C361 1514 63 1220 63 744C63 271 362 -24 771 -24Z" fill="#1F1F1F" transform="translate(34.000,127.582) scale(0.064453,-0.064453)" />
    <path d="M765 -24C1166 -24 1468 270 1468 744C1468 1219 1166 1514 765 1514C364 1514 63 1219 63 744C63 272 364 -24 765 -24ZM765 248C535 248 373 428 373 744C373 1062 535 1242 765 1242C995 1242 1158 1062 1158 744C1158 428 995 248 765 248Z" fill="#1F1F1F" transform="translate(150.302,127.582) scale(0.064453,-0.064453)" />
    <path d="M45 1226H497V0H805V1226H1256V1490H45Z" fill="#1F1F1F" transform="translate(269.440,127.582) scale(0.064453,-0.064453)" />
    <path d="M9 0H341L449 325H1006L1110 0H1451L928 1490H532ZM532 571 583 725C631 877 677 1029 731 1214C784 1029 830 877 876 725L926 571Z" fill="#1F1F1F" transform="translate(373.753,127.582) scale(0.064453,-0.064453)" />
    <rect x="498.946" y="38.922" width="1.388" height="81.286" fill="#C38A5A"/>
    <rect x="491.710" y="71.634" width="15.861" height="15.861" fill="#C38A5A"/>
    <path d="M771 -24C1120 -24 1380 191 1427 523H1117C1079 348 951 248 775 248C521 248 373 441 373 744C373 1049 522 1242 775 1242C952 1242 1081 1141 1116 965H1427C1380 1298 1120 1514 771 1514C361 1514 63 1220 63 744C63 271 362 -24 771 -24Z" fill="#1F1F1F" transform="translate(531.362,127.582) scale(0.064453,-0.064453)" />
    <path d="M111 0H1180V264H419V624H1123V881H419V1226H1180V1490H111Z" fill="#1F1F1F" transform="translate(647.663,127.582) scale(0.064453,-0.064453)" />
    <path d="M111 0H419V521H689C690 521 691 521 692 521L956 0H1286L987 579C1154 656 1253 804 1253 1001C1253 1301 1043 1490 707 1490H111ZM419 768V1234H688C851 1234 952 1143 952 1001C952 859 851 768 689 768Z" fill="#1F1F1F" transform="translate(748.368,127.582) scale(0.064453,-0.064453)" />
    <path d="M765 -24C1166 -24 1468 270 1468 744C1468 1219 1166 1514 765 1514C364 1514 63 1219 63 744C63 272 364 -24 765 -24ZM765 248C535 248 373 428 373 744C373 1062 535 1242 765 1242C995 1242 1158 1062 1158 744C1158 428 995 248 765 248Z" fill="#1F1F1F" transform="translate(854.679,127.582) scale(0.064453,-0.064453)" />
    <path d="M652 -24C990 -24 1209 152 1209 420C1209 633 1071 762 772 833L611 871C406 920 326 982 326 1090C326 1225 453 1320 633 1320C821 1320 943 1215 954 1044H1169C1160 1335 957 1514 636 1514C316 1514 105 1341 105 1079C105 873 237 748 538 677L701 638C908 589 987 523 987 408C987 263 854 170 652 170C429 170 298 286 297 483H75C75 168 295 -24 652 -24Z" fill="#B8AEA3" transform="translate(283.632,193.914) scale(0.009766,-0.009766)" />
    <path d="M720 -24C1078 -24 1312 199 1312 510V1490H1091V528C1091 324 950 177 720 177C491 177 350 324 350 528V1490H129V510C129 199 362 -24 720 -24Z" fill="#B8AEA3" transform="translate(300.571,193.914) scale(0.009766,-0.009766)" />
    <path d="M136 0H358V561H681C1000 561 1207 740 1207 1026C1207 1311 1007 1490 688 1490H136ZM358 753V1297H677C869 1297 988 1194 988 1026C988 858 869 753 677 753Z" fill="#B8AEA3" transform="translate(319.043,193.914) scale(0.009766,-0.009766)" />
    <path d="M136 0H1138V195H358V663H1080V856H358V1295H1138V1490H136Z" fill="#B8AEA3" transform="translate(335.806,193.914) scale(0.009766,-0.009766)" />
    <path d="M136 0H358V564H688C691 564 695 564 698 564L995 0H1245L923 601C1109 668 1222 818 1222 1026C1222 1311 1022 1490 703 1490H136ZM358 753V1298H693C885 1298 1003 1194 1003 1026C1003 858 886 753 694 753Z" fill="#B8AEA3" transform="translate(351.984,193.914) scale(0.009766,-0.009766)" />
    <path d="M136 0H358V657H1049V849H358V1295H1106V1490H136Z" fill="#B8AEA3" transform="translate(369.147,193.914) scale(0.009766,-0.009766)" />
    <path d="M358 1490H136V0H358Z" fill="#B8AEA3" transform="translate(384.817,193.914) scale(0.009766,-0.009766)" />
    <path d="M776 -24C1101 -24 1353 177 1404 494H1179C1132 292 980 179 778 179C484 179 304 407 304 744C304 1083 484 1311 778 1311C981 1311 1134 1197 1178 994H1404C1352 1312 1101 1514 776 1514C364 1514 81 1203 81 744C81 288 365 -24 776 -24Z" fill="#B8AEA3" transform="translate(394.041,193.914) scale(0.009766,-0.009766)" />
    <path d="M358 1490H136V0H358Z" fill="#B8AEA3" transform="translate(412.914,193.914) scale(0.009766,-0.009766)" />
    <path d="M136 0H1138V195H358V663H1080V856H358V1295H1138V1490H136Z" fill="#B8AEA3" transform="translate(422.138,193.914) scale(0.009766,-0.009766)" />
    <path d="M652 -24C990 -24 1209 152 1209 420C1209 633 1071 762 772 833L611 871C406 920 326 982 326 1090C326 1225 453 1320 633 1320C821 1320 943 1215 954 1044H1169C1160 1335 957 1514 636 1514C316 1514 105 1341 105 1079C105 873 237 748 538 677L701 638C908 589 987 523 987 408C987 263 854 170 652 170C429 170 298 286 297 483H75C75 168 295 -24 652 -24Z" fill="#B8AEA3" transform="translate(438.315,193.914) scale(0.009766,-0.009766)" />
    <path d="M566 0H786V595L1332 1490H1077L797 1020C755 950 716 881 677 812C638 881 598 950 556 1020L273 1490H16L566 595Z" fill="#B8AEA3" transform="translate(464.420,193.914) scale(0.009766,-0.009766)" />
    <path d="M48 1295H523V0H746V1295H1219V1490H48Z" fill="#B8AEA3" transform="translate(491.150,193.914) scale(0.009766,-0.009766)" />
    <path d="M136 0H1138V195H358V663H1080V856H358V1295H1138V1490H136Z" fill="#B8AEA3" transform="translate(507.923,193.914) scale(0.009766,-0.009766)" />
    <path d="M136 0H358V564H688C691 564 695 564 698 564L995 0H1245L923 601C1109 668 1222 818 1222 1026C1222 1311 1022 1490 703 1490H136ZM358 753V1298H693C885 1298 1003 1194 1003 1026C1003 858 886 753 694 753Z" fill="#B8AEA3" transform="translate(524.100,193.914) scale(0.009766,-0.009766)" />
    <path d="M136 0H355V812C355 913 351 1055 348 1190C402 1036 452 894 483 812L800 0H982L1296 812C1328 897 1379 1049 1434 1211C1431 1070 1427 918 1427 812V0H1645V1490H1331L1002 617C976 541 927 400 893 297C859 400 810 541 783 617L449 1490H136Z" fill="#B8AEA3" transform="translate(541.264,193.914) scale(0.009766,-0.009766)" />
    <path d="M358 1490H136V0H358Z" fill="#B8AEA3" transform="translate(563.056,193.914) scale(0.009766,-0.009766)" />
    <path d="M136 0H358V806C358 872 357 1001 350 1176C449 1006 530 871 572 805L1081 0H1329V1490H1106V603C1106 549 1108 422 1112 314C1052 420 986 533 951 589L382 1490H136Z" fill="#B8AEA3" transform="translate(572.281,193.914) scale(0.009766,-0.009766)" />
    <path d="M16 0H252L388 387H989L1121 0H1362L825 1490H557ZM455 576 548 840C589 963 632 1094 692 1287C751 1094 793 963 834 840L924 576Z" fill="#B8AEA3" transform="translate(590.977,193.914) scale(0.009766,-0.009766)" />
    <path d="M776 -24C1101 -24 1353 177 1404 494H1179C1132 292 980 179 778 179C484 179 304 407 304 744C304 1083 484 1311 778 1311C981 1311 1134 1197 1178 994H1404C1352 1312 1101 1514 776 1514C364 1514 81 1203 81 744C81 288 365 -24 776 -24Z" fill="#B8AEA3" transform="translate(608.844,193.914) scale(0.009766,-0.009766)" />
    <path d="M358 1490H136V0H358Z" fill="#B8AEA3" transform="translate(627.717,193.914) scale(0.009766,-0.009766)" />
    <path d="M766 -24C1163 -24 1452 288 1452 744C1452 1202 1163 1514 766 1514C369 1514 81 1202 81 744C81 289 369 -24 766 -24ZM766 179C509 179 304 381 304 744C304 1109 509 1311 766 1311C1023 1311 1229 1109 1229 744C1229 381 1023 179 766 179Z" fill="#B8AEA3" transform="translate(636.941,193.914) scale(0.009766,-0.009766)" />
    <path d="M136 0H358V806C358 872 357 1001 350 1176C449 1006 530 871 572 805L1081 0H1329V1490H1106V603C1106 549 1108 422 1112 314C1052 420 986 533 951 589L382 1490H136Z" fill="#B8AEA3" transform="translate(656.312,193.914) scale(0.009766,-0.009766)" />
    <path d="M136 0H1138V195H358V663H1080V856H358V1295H1138V1490H136Z" fill="#B8AEA3" transform="translate(675.009,193.914) scale(0.009766,-0.009766)" />
    <path d="M652 -24C990 -24 1209 152 1209 420C1209 633 1071 762 772 833L611 871C406 920 326 982 326 1090C326 1225 453 1320 633 1320C821 1320 943 1215 954 1044H1169C1160 1335 957 1514 636 1514C316 1514 105 1341 105 1079C105 873 237 748 538 677L701 638C908 589 987 523 987 408C987 263 854 170 652 170C429 170 298 286 297 483H75C75 168 295 -24 652 -24Z" fill="#B8AEA3" transform="translate(691.186,193.914) scale(0.009766,-0.009766)" />
  </g>
</svg>
